<svg width="27" height="26" viewBox="0 0 27 26" fill="none" xmlns="http://www.w3.org/2000/svg">
<path d="M25.5892 14.1304C25.4561 14.0668 25.2999 14.0296 25.1349 14.0296C24.7069 14.0296 24.3374 14.28 24.1648 14.6422L24.162 14.6487L23.6994 15.6394C23.596 15.8608 23.3855 16.013 23.1428 16.0419C22.8154 16.0808 22.51 15.885 22.3651 15.5888C22.259 15.372 22.1396 15.1702 22.0064 14.9788C22.0129 14.9886 22.0235 14.9946 22.0349 14.9974C22.0591 15.0032 22.0826 15.0144 22.1075 15.0144C22.5354 15.0134 22.9045 14.7631 23.0775 14.4011L23.0803 14.3946C23.2954 13.9819 23.4215 13.4934 23.4215 12.9753C23.4215 12.6093 23.3585 12.258 23.2428 11.9317L23.2496 11.9535C22.9853 11.2433 22.4638 10.6811 21.8009 10.37L21.7837 10.3627C21.4316 10.201 21.0198 10.1067 20.586 10.1067C19.3553 10.1067 18.3018 10.8654 17.8677 11.9406L17.8607 11.9602C17.7986 12.0915 17.7624 12.2455 17.7624 12.4079C17.7624 12.7433 17.5761 13.2239 17.2535 13.3156C17.1175 13.3542 16.9849 13.3987 16.855 13.4488C16.8713 13.4432 16.8779 13.4238 16.8685 13.4095L16.5315 12.8947C16.4361 12.749 16.4227 12.5644 16.4962 12.4065L17.0053 11.3128C17.0666 11.1818 17.1024 11.0285 17.1024 10.8668C17.1024 10.2739 16.6218 9.79338 16.029 9.79338C15.6038 9.79338 15.2364 10.0405 15.0626 10.3991L15.0598 10.4054L14.1793 12.2948C14.1157 12.4279 14.0786 12.5841 14.0786 12.7489C14.0786 12.9678 14.144 13.1714 14.2564 13.3412L14.2539 13.3372L14.5249 13.7505C14.8427 14.2353 14.7596 14.8699 14.4207 15.3402C14.4141 15.3499 14.4015 15.3534 14.3908 15.3484L13.2643 14.8232C13.153 14.7714 13.0233 14.738 12.8867 14.7308C12.8857 14.7307 12.8852 14.7295 12.886 14.7289C13.0935 14.5349 13.2231 14.2598 13.2241 13.9546V12.6804C13.2241 12.289 13.0141 11.9459 12.7007 11.759L12.6958 11.7563L12.2698 11.5051C11.7514 11.1993 11.5461 10.5595 11.6595 9.96835C11.6628 9.94763 11.6807 9.93239 11.7016 9.93239H13.0002C13.593 9.93239 14.0736 9.45177 14.0736 8.85898C14.0736 8.26619 13.593 7.78557 13.0002 7.78557H12.7577C12.1244 7.78557 11.5987 7.32574 11.3683 6.73577C11.3752 6.75578 11.3989 6.76423 11.4169 6.7531L12.7157 5.94904C13.0228 5.75676 13.224 5.42038 13.224 5.03696V2.91324C13.224 2.32045 12.7434 1.83983 12.1506 1.83983C11.5578 1.83983 11.0772 2.32045 11.0772 2.91324V4.02977C11.0772 4.28398 10.9457 4.5201 10.7295 4.65391C10.4364 4.83539 10.0601 4.78343 9.79153 4.56724C9.607 4.41869 9.41143 4.28374 9.20609 4.16366C9.19763 4.15909 9.19881 4.14651 9.20791 4.14339C9.62951 3.99874 9.92794 3.60653 9.93078 3.14421C9.93421 3.09076 9.93615 3.02802 9.93615 2.96511C9.93615 1.34378 8.63504 0.0263254 7.01995 0H7.01754C5.39958 0.0259497 4.09797 1.34359 4.09797 2.9653C4.09797 3.0281 4.09992 3.09051 4.10376 3.15234L4.10333 3.14389C4.10628 3.61611 4.41723 4.01491 4.84522 4.14984C4.84801 4.1506 4.8485 4.15435 4.846 4.15581C4.45667 4.38371 4.1209 4.64739 3.8251 4.95023C3.82457 4.95078 3.82373 4.95088 3.82308 4.95048L3.33516 4.64841C3.12454 4.51801 2.99638 4.28793 2.99638 4.04021V2.91324C2.99638 2.32045 2.51576 1.83983 1.92296 1.83983C1.33017 1.83983 0.849552 2.32045 0.849552 2.91324V5.03693C0.849552 5.42036 1.05071 5.75676 1.35325 5.94638L1.35773 5.94901L1.7847 6.21334C2.29286 6.52792 2.48995 7.16263 2.37804 7.74971C2.37479 7.77034 2.35702 7.78554 2.33614 7.78554H1.07341C0.48062 7.78554 0 8.26616 0 8.85895C0 9.45174 0.48062 9.93236 1.07341 9.93236H1.22947C1.89253 9.93236 2.44267 10.4132 2.69182 11.0277C2.68468 11.0078 2.66117 10.9993 2.64294 11.01L1.3778 11.7563C1.0594 11.946 0.849418 12.2885 0.849418 12.6799V13.9544C0.849418 14.5472 1.33004 15.0278 1.92283 15.0278C2.51562 15.0278 2.99624 14.5472 2.99624 13.9544V13.7072C2.99624 13.4508 3.1317 13.2136 3.35243 13.0834C3.64333 12.9117 4.01056 12.9691 4.27237 13.1825C5.0232 13.7946 5.97611 14.1657 7.0152 14.1799H7.01834C8.27416 14.1628 9.40167 13.6277 10.1995 12.7791C10.2008 12.7777 10.2028 12.7774 10.2044 12.7784L10.715 13.0797C10.9394 13.2122 11.0772 13.4535 11.0772 13.7141V13.9543C11.0799 14.519 11.5212 14.9797 12.0777 15.0134C12.0788 15.0135 12.0793 15.0148 12.0785 15.0156C11.8665 15.2109 11.7341 15.4899 11.7341 15.7998C11.7341 16.2277 11.9864 16.5966 12.3503 16.7659L12.3569 16.7687L12.5612 16.864C13.1039 17.1171 13.3753 17.7249 13.3357 18.3224C13.3352 18.3322 13.3276 18.3401 13.3179 18.341L11.8763 18.4811C11.49 18.5194 11.1672 18.7579 11.0103 19.0901L11.0075 19.0966L10.4792 20.2304C10.4159 20.3632 10.3789 20.5189 10.3789 20.6833C10.3789 21.2759 10.8593 21.7563 11.452 21.7563C11.8802 21.7563 12.2499 21.5054 12.422 21.1427L12.4248 21.1361L12.5259 20.9194C12.63 20.6961 12.8444 20.5445 13.0896 20.5206C13.4108 20.4892 13.7063 20.6856 13.8472 20.976C14.2795 21.8669 14.9877 22.5765 15.8591 23.0049L15.8849 23.0163C16.4059 23.2651 17.0173 23.4104 17.6627 23.4104H17.6751C18.2622 23.4038 18.8201 23.2896 19.3339 23.0867C19.318 23.0923 19.3117 23.1114 19.3213 23.1253L19.6835 23.6529C19.7865 23.803 19.8025 23.9964 19.7255 24.1614L19.5797 24.4737C19.5163 24.6066 19.4792 24.7624 19.4792 24.9269C19.4792 25.3551 19.7302 25.7247 20.0931 25.8966L20.0996 25.8994C20.2316 25.9629 20.3865 26 20.5501 26H20.5526C20.9808 26 21.3509 25.7489 21.5225 25.386L21.5253 25.3794L22.0536 24.2456C22.1173 24.1127 22.1544 23.9566 22.1544 23.7919C22.1544 23.5653 22.0841 23.3551 21.964 23.1821L21.9664 23.1856L21.6853 22.7759C21.3559 22.2957 21.4331 21.6552 21.7731 21.1826C21.7797 21.1728 21.7924 21.1694 21.8031 21.1744L22.9676 21.7181C23.1008 21.7818 23.2571 21.819 23.4221 21.819C24.0151 21.819 24.4959 21.3383 24.4959 20.7453C24.4959 20.3172 24.2455 19.9478 23.8832 19.7753L23.8767 19.7725L23.59 19.6386C23.0763 19.3988 22.8193 18.823 22.8645 18.2579C22.8653 18.2463 22.8742 18.2369 22.8857 18.2356L24.3782 18.0584C24.7545 18.0118 25.0672 17.7771 25.2223 17.4527L25.2251 17.4462L26.1073 15.5576C26.1707 15.4246 26.2078 15.2686 26.2078 15.1038C26.2078 14.6758 25.9577 14.3062 25.5956 14.1332L25.5892 14.1304ZM7.03187 12.0318C7.02291 12.0326 7.01384 12.0325 7.00491 12.0315C5.53769 11.8564 4.41054 10.6191 4.41054 9.11847C4.41054 9.02707 4.41476 8.93669 4.42289 8.84744C4.42281 8.8486 4.42113 8.84863 4.42103 8.84747C4.4143 8.77218 4.41049 8.68595 4.41049 8.59884C4.41049 7.09354 5.5445 5.85313 7.00479 5.68525C7.0138 5.68439 7.02293 5.68447 7.03192 5.68554C8.49955 5.86038 9.627 7.09797 9.627 8.59894C9.627 8.69045 9.62284 8.78099 9.61466 8.87038C9.61474 8.86922 9.61641 8.86919 9.61652 8.87035C9.62322 8.94545 9.627 9.03144 9.627 9.11831C9.627 10.6239 8.49254 11.8644 7.03187 12.0318ZM16.7723 21.0646C16.7754 21.0656 16.7773 21.0613 16.7745 21.0596C15.9574 20.5462 15.4224 19.6499 15.4224 18.6284C15.4224 18.1009 15.5651 17.6067 15.814 17.1823L15.8075 17.1945C15.8074 17.1947 15.8076 17.1948 15.8078 17.1947C15.8078 17.1947 15.8078 17.1946 15.8078 17.1946L15.8084 17.1925C15.8085 17.1919 15.8087 17.1914 15.8089 17.191C16.1517 16.4401 16.7338 15.848 17.456 15.5012L17.4767 15.4923C17.7812 15.3491 18.1377 15.2642 18.5137 15.2608H18.5221C18.8438 15.2608 19.1487 15.3325 19.4218 15.4608C19.4205 15.4603 19.4196 15.4621 19.4207 15.4628C20.2413 15.9757 20.779 16.8741 20.779 17.8982C20.779 18.4266 20.6358 18.9217 20.386 19.3465C20.3867 19.3453 20.3885 19.3462 20.388 19.3475C19.9746 20.4497 18.9295 21.2201 17.7045 21.2201C17.3781 21.2201 17.0645 21.1654 16.7723 21.0646Z" fill="black" fill-opacity="0.72"/>
</svg>
