<svg width="31" height="26" viewBox="0 0 31 26" fill="none" xmlns="http://www.w3.org/2000/svg">
<path d="M30.0752 2.55078V19.3012C30.0728 19.977 29.8033 20.6243 29.3255 21.1022C28.8476 21.58 28.2002 21.8495 27.5245 21.852H20.6892C18.9638 21.852 17.3603 22.7416 16.4471 24.2055L15.7619 25.3037C15.6323 25.5116 15.5397 25.7599 15.3355 25.8953C15.2325 25.9636 15.1117 26 14.9881 26C14.8646 26 14.7437 25.9636 14.6407 25.8953C14.4366 25.7599 14.344 25.5116 14.2143 25.3037L13.5292 24.2055C12.6159 22.7416 11.0124 21.852 9.28701 21.852H2.55308C1.87692 21.8502 1.22894 21.5809 0.750603 21.103C0.272268 20.6251 0.00242979 19.9774 0 19.3012V2.55078C0.00242646 1.87502 0.271948 1.22763 0.749786 0.749787C1.22763 0.271948 1.87502 0.00242646 2.55078 0H27.5245C28.2002 0.00242646 28.8476 0.271948 29.3255 0.749787C29.8033 1.22763 30.0728 1.87502 30.0752 2.55078ZM16.6629 16.488C16.6634 16.1664 16.5685 15.852 16.3901 15.5844C16.2118 15.3168 15.9581 15.1081 15.6612 14.9847C15.3643 14.8614 15.0374 14.8289 14.722 14.8913C14.4065 14.9538 14.1167 15.1084 13.8892 15.3356C13.6616 15.5628 13.5066 15.8524 13.4437 16.1677C13.3808 16.4831 13.4129 16.81 13.5358 17.1071C13.6588 17.4042 13.8671 17.6582 14.1344 17.8369C14.4017 18.0156 14.7161 18.111 15.0376 18.111C15.4683 18.111 15.8813 17.9401 16.1861 17.6358C16.4908 17.3314 16.6623 16.9186 16.6629 16.488ZM13.7622 12.275C13.7622 12.6133 13.8966 12.9377 14.1358 13.1769C14.375 13.4161 14.6994 13.5504 15.0376 13.5504C15.3759 13.5504 15.7003 13.4161 15.9395 13.1769C16.1786 12.9377 16.313 12.6133 16.313 12.275V4.8276C16.313 4.48935 16.1786 4.16495 15.9395 3.92576C15.7003 3.68658 15.3759 3.55221 15.0376 3.55221C14.6994 3.55221 14.375 3.68658 14.1358 3.92576C13.8966 4.16495 13.7622 4.48935 13.7622 4.8276V12.275Z" fill="black" fill-opacity="0.7"/>
</svg>
