<svg width="27" height="27" viewBox="0 0 27 27" fill="none" xmlns="http://www.w3.org/2000/svg">
<path d="M16.3117 11.6213H23.8154C24.0631 11.6213 24.3006 11.5229 24.4757 11.3478C24.6508 11.1726 24.7492 10.9351 24.7492 10.6875C24.7492 8.44974 23.8602 6.30362 22.2779 4.72129C20.6956 3.13895 18.5494 2.25 16.3117 2.25C16.064 2.25 15.8265 2.34838 15.6514 2.52349C15.4763 2.6986 15.3779 2.9361 15.3779 3.18375V10.6875C15.3779 10.9351 15.4763 11.1726 15.6514 11.3478C15.8265 11.5229 16.064 11.6213 16.3117 11.6213Z" fill="white" fill-opacity="0.7"/>
<path d="M23.7146 13.5003H14.5459C14.4114 13.5003 14.2783 13.4738 14.1541 13.4223C14.0299 13.3709 13.917 13.2955 13.822 13.2004C13.7269 13.1054 13.6515 12.9925 13.6 12.8683C13.5486 12.7441 13.5221 12.611 13.5221 12.4765V3.28528C13.523 3.13935 13.493 2.99489 13.4341 2.86138C13.3752 2.72787 13.2887 2.60832 13.1803 2.51058C13.072 2.41284 12.9442 2.33912 12.8053 2.29426C12.6665 2.2494 12.5197 2.23441 12.3746 2.25028C10.2627 2.47453 8.25741 3.292 6.59062 4.60815C4.92384 5.9243 3.66364 7.68538 2.95578 9.68772C2.24792 11.6901 2.1213 13.8519 2.59056 15.9232C3.05983 17.9944 4.10581 19.8906 5.60755 21.3923C7.10929 22.8941 9.00544 23.9401 11.0767 24.4093C13.148 24.8786 15.3098 24.752 17.3122 24.0441C19.3145 23.3362 21.0756 22.0761 22.3917 20.4093C23.7079 18.7425 24.5254 16.7372 24.7496 14.6253C24.7621 14.482 24.7446 14.3377 24.6982 14.2015C24.6519 14.0654 24.5776 13.9404 24.4802 13.8345C24.3828 13.7287 24.2645 13.6443 24.1326 13.5867C24.0008 13.5292 23.8584 13.4997 23.7146 13.5003Z" fill="white" fill-opacity="0.7"/>
</svg>
