<svg width="26" height="26" viewBox="0 0 26 26" fill="none" xmlns="http://www.w3.org/2000/svg">
<path d="M0 18.1692C0 16.7347 1.1629 15.5718 2.5974 15.5718C4.03191 15.5718 5.19481 16.7347 5.19481 18.1692V23.39C5.19481 24.8245 4.03191 25.9874 2.5974 25.9874C1.1629 25.9874 0 24.8245 0 23.39V18.1692Z" fill="black" fill-opacity="0.69"/>
<path d="M9.09082 13.0129C9.09082 11.5784 10.2537 10.4155 11.6882 10.4155C13.1227 10.4155 14.2856 11.5784 14.2856 13.0129V23.3896C14.2856 24.8241 13.1227 25.987 11.6882 25.987C10.2537 25.987 9.09082 24.8241 9.09082 23.3896V13.0129Z" fill="black" fill-opacity="0.69"/>
<path d="M24.1116 5.19481C24.7893 5.19481 25.1288 4.37536 24.6495 3.8961L22.2749 1.52152C21.4346 0.68121 20.0722 0.681209 19.2319 1.52152L16.8573 3.8961C16.378 4.37536 16.7175 5.19481 17.3952 5.19481C17.8154 5.19481 18.156 5.53541 18.156 5.95557V23.4026C18.156 24.8371 19.3189 26 20.7534 26C22.1879 26 23.3508 24.8371 23.3508 23.4026V5.95557C23.3508 5.53541 23.6914 5.19481 24.1116 5.19481Z" fill="black" fill-opacity="0.69"/>
</svg>
