<svg width="23" height="23" viewBox="0 0 23 23" fill="none" xmlns="http://www.w3.org/2000/svg">
<path d="M14.3117 9.62125H21.8154C22.0631 9.62125 22.3006 9.52287 22.4757 9.34776C22.6508 9.17265 22.7492 8.93515 22.7492 8.6875C22.7492 6.44974 21.8602 4.30362 20.2779 2.72129C18.6956 1.13895 16.5494 0.25 14.3117 0.25C14.064 0.25 13.8265 0.348377 13.6514 0.523489C13.4763 0.698601 13.3779 0.936104 13.3779 1.18375V8.6875C13.3779 8.93515 13.4763 9.17265 13.6514 9.34776C13.8265 9.52287 14.064 9.62125 14.3117 9.62125Z" fill="black" fill-opacity="0.698039"/>
<path d="M21.7146 11.5003H12.5459C12.4114 11.5003 12.2783 11.4738 12.1541 11.4223C12.0299 11.3709 11.917 11.2955 11.822 11.2004C11.7269 11.1054 11.6515 10.9925 11.6 10.8683C11.5486 10.7441 11.5221 10.611 11.5221 10.4765V1.28528C11.523 1.13935 11.493 0.994891 11.4341 0.861379C11.3752 0.727867 11.2887 0.608319 11.1803 0.510581C11.072 0.412843 10.9442 0.339125 10.8053 0.294263C10.6665 0.249401 10.5197 0.234411 10.3746 0.250275C8.2627 0.474526 6.25741 1.292 4.59062 2.60815C2.92384 3.9243 1.66364 5.68538 0.955782 7.68772C0.247918 9.69006 0.121298 11.8519 0.590564 13.9232C1.05983 15.9944 2.10581 17.8906 3.60755 19.3923C5.10929 20.8941 7.00544 21.9401 9.07673 22.4093C11.148 22.8786 13.3098 22.752 15.3122 22.0441C17.3145 21.3362 19.0756 20.0761 20.3917 18.4093C21.7079 16.7425 22.5254 14.7372 22.7496 12.6253C22.7621 12.482 22.7446 12.3377 22.6982 12.2015C22.6519 12.0654 22.5776 11.9404 22.4802 11.8345C22.3828 11.7287 22.2645 11.6443 22.1326 11.5867C22.0008 11.5292 21.8584 11.4997 21.7146 11.5003Z" fill="black" fill-opacity="0.698039"/>
</svg>
