<svg width="26" height="26" viewBox="0 0 26 26" fill="none" xmlns="http://www.w3.org/2000/svg">
<path d="M12.9989 0C20.1779 0 25.9978 5.8198 25.9978 12.9989C25.9978 20.1779 20.1779 25.9978 12.9989 25.9978C10.8953 25.9978 8.86242 25.4968 7.03612 24.5523L2.06298 25.9397C1.19865 26.1811 0.302329 25.6761 0.0609779 24.8118C-0.0189003 24.5258 -0.0188613 24.2233 0.06103 23.9376L1.44887 18.9683C0.502239 17.1404 0 15.1051 0 12.9989C0 5.8198 5.8198 0 12.9989 0ZM12.9989 1.94984C6.89667 1.94984 1.94984 6.89667 1.94984 12.9989C1.94984 14.9092 2.4344 16.747 3.34466 18.3772L3.54049 18.7278L2.09407 23.9068L7.2762 22.4611L7.62657 22.6564C9.2553 23.5645 11.0909 24.048 12.9989 24.048C19.1011 24.048 24.048 19.1011 24.048 12.9989C24.048 6.89667 19.1011 1.94984 12.9989 1.94984ZM12.9989 17.5485C13.7168 17.5485 14.2988 18.1305 14.2988 18.8484C14.2988 19.5663 13.7168 20.1483 12.9989 20.1483C12.281 20.1483 11.699 19.5663 11.699 18.8484C11.699 18.1305 12.281 17.5485 12.9989 17.5485ZM12.9989 6.17448C14.9732 6.17448 16.5736 7.77493 16.5736 9.74918C16.5736 11.0631 16.1869 11.7952 15.2073 12.8151L14.9881 13.0383C14.1797 13.8467 13.9738 14.19 13.9738 14.9487C13.9738 15.4872 13.5373 15.9237 12.9989 15.9237C12.4605 15.9237 12.024 15.4872 12.024 14.9487C12.024 13.6348 12.4107 12.9027 13.3903 11.8828L13.6095 11.6596C14.4179 10.8512 14.6238 10.5079 14.6238 9.74918C14.6238 8.85178 13.8963 8.12431 12.9989 8.12431C12.1576 8.12431 11.4657 8.76369 11.3825 9.58304L11.374 9.74918C11.374 10.2876 10.9375 10.7241 10.3991 10.7241C9.86069 10.7241 9.4242 10.2876 9.4242 9.74918C9.4242 7.77493 11.0246 6.17448 12.9989 6.17448Z" fill="#4F4F4F"/>
</svg>
