<svg width="21" height="25" viewBox="0 0 21 25" fill="none" xmlns="http://www.w3.org/2000/svg">
<path d="M18.336 3.21875H15.7283V2.375C15.7283 1.92745 15.5451 1.49822 15.2191 1.18176C14.893 0.86529 14.4509 0.6875 13.9898 0.6875H7.03586C6.57478 0.6875 6.1326 0.86529 5.80657 1.18176C5.48054 1.49822 5.29738 1.92745 5.29738 2.375V3.21875H2.68965C2.22858 3.21875 1.78639 3.39654 1.46036 3.71301C1.13433 4.02947 0.951172 4.4587 0.951172 4.90625V22.625C0.951172 23.0726 1.13433 23.5018 1.46036 23.8182C1.78639 24.1347 2.22858 24.3125 2.68965 24.3125H18.336C18.7971 24.3125 19.2393 24.1347 19.5653 23.8182C19.8913 23.5018 20.0745 23.0726 20.0745 22.625V4.90625C20.0745 4.4587 19.8913 4.02947 19.5653 3.71301C19.2393 3.39654 18.7971 3.21875 18.336 3.21875ZM7.03586 2.375H13.9898V5.75H7.03586V2.375ZM18.336 22.625H2.68965V4.90625H5.29738V7.4375H15.7283V4.90625H18.336V22.625Z" fill="black" fill-opacity="0.78"/>
</svg>
