<svg width="29" height="26" viewBox="0 0 29 26" fill="none" xmlns="http://www.w3.org/2000/svg">
<path d="M26.3636 8.27186C27.0628 8.27186 27.7334 8.5209 28.2278 8.96419C28.7222 9.40748 29 10.0087 29 10.6356V15.3631C29 15.99 28.7222 16.5912 28.2278 17.0345C27.7334 17.4778 27.0628 17.7269 26.3636 17.7269C25.5608 17.7269 24.8958 18.3248 24.6567 19.0912C24.111 20.8403 23.0113 22.422 21.4755 23.6362C19.8459 24.9246 17.8202 25.7246 15.6799 25.9406C15.0305 26.0062 14.5 25.4708 14.5 24.8181C14.5 24.1654 15.0315 23.6445 15.6784 23.5571C17.3399 23.3327 18.89 22.6375 20.0926 21.5593C21.5758 20.2294 22.4091 18.4257 22.4091 16.545V9.45374C22.4091 7.57302 21.5758 5.76933 20.0926 4.43946C18.6093 3.10959 16.5976 2.36248 14.5 2.36248C12.4024 2.36248 10.3907 3.10959 8.90743 4.43946C7.42419 5.76933 6.59091 7.57302 6.59091 9.45374V13.7723C6.59091 15.9564 4.8204 17.7269 2.63636 17.7269C1.93716 17.7269 1.26659 17.4778 0.772173 17.0345C0.277759 16.5912 0 15.99 0 15.3631V10.6356C0 10.0087 0.277759 9.40748 0.772173 8.96419C1.26659 8.5209 1.93716 8.27186 2.63636 8.27186C3.43922 8.27186 4.10424 7.67401 4.34346 6.90762C4.88938 5.15869 5.98918 3.57734 7.52494 2.36328C9.45145 0.840317 11.9316 0 14.5 0C17.0684 0 19.5485 0.840317 21.4751 2.36328C23.0108 3.57734 24.1106 5.15869 24.6565 6.90762C24.8958 7.67401 25.5608 8.27186 26.3636 8.27186ZM10.1166 18.0555C9.45227 17.783 9.26655 16.9626 9.6772 16.3735C10.0352 15.86 10.7219 15.7114 11.3038 15.9421C12.3067 16.3397 13.3952 16.5466 14.5 16.545C15.6048 16.5466 16.6933 16.3397 17.6962 15.9421C18.2781 15.7114 18.9648 15.86 19.3228 16.3735C19.7334 16.9626 19.5477 17.783 18.8834 18.0555C17.5127 18.6178 16.018 18.9108 14.5 18.9087C12.982 18.9108 11.4873 18.6178 10.1166 18.0555Z" fill="#414141"/>
</svg>
