<svg width="57" height="54" viewBox="0 0 57 54" fill="none" xmlns="http://www.w3.org/2000/svg">
<g filter="url(#filter0_d_325_1224)">
<path d="M27.5401 24.0903C26.9801 24.2564 26.6601 25.004 27.1401 25.5024L31.54 30.1544C32.02 30.6528 32.02 31.4004 31.54 31.8988L29.8601 33.6433C29.3801 34.1417 28.6601 34.1417 28.1801 33.6433L17.3804 22.4289C16.9004 21.9304 16.9004 21.1828 17.3804 20.6844L28.1801 9.46996C28.6601 8.97154 29.3801 8.97154 29.8601 9.46996L31.54 11.2975C32.02 11.7959 32.02 12.5435 31.54 13.042L27.0601 17.6939C26.5801 18.1923 27.4601 19.1061 27.4601 19.1061C37.6999 19.4383 45.6197 26.4162 48.0996 35.9692C50.7395 32.3142 52.3395 27.8284 52.3395 23.0103C52.2595 10.1345 41.5398 0 28.2601 0C14.9004 0 4.26072 10.2176 4.26072 22.7611C4.26072 26.7485 5.38069 30.4866 7.14065 33.8094C7.46064 34.3078 7.54064 34.9724 7.38064 35.5539L4.26072 44.4424C3.94073 45.2731 4.74071 46.0207 5.54069 45.7715L14.1805 42.3656C14.6605 42.1164 15.3004 42.2825 15.8604 42.6148C19.4603 44.6916 23.7802 45.9376 28.4201 45.9376C34.4199 45.8546 39.8598 43.6947 44.0197 40.2058C43.0597 31.3173 36.0999 24.4225 27.5401 24.0903Z" fill="white" fill-opacity="0.75"/>
</g>
<defs>
<filter id="filter0_d_325_1224" x="0.188477" y="0" width="56.1514" height="53.9377" filterUnits="userSpaceOnUse" color-interpolation-filters="sRGB">
<feFlood flood-opacity="0" result="BackgroundImageFix"/>
<feColorMatrix in="SourceAlpha" type="matrix" values="0 0 0 0 0 0 0 0 0 0 0 0 0 0 0 0 0 0 127 0" result="hardAlpha"/>
<feOffset dy="4"/>
<feGaussianBlur stdDeviation="2"/>
<feComposite in2="hardAlpha" operator="out"/>
<feColorMatrix type="matrix" values="0 0 0 0 0 0 0 0 0 0 0 0 0 0 0 0 0 0 0.25 0"/>
<feBlend mode="normal" in2="BackgroundImageFix" result="effect1_dropShadow_325_1224"/>
<feBlend mode="normal" in="SourceGraphic" in2="effect1_dropShadow_325_1224" result="shape"/>
</filter>
</defs>
</svg>
