<svg width="245" height="63" viewBox="0 0 245 63" fill="none" xmlns="http://www.w3.org/2000/svg">
<path d="M20.232 22.328C19.336 22.328 18.696 22.04 18.312 21.464C18.056 21.144 17.928 20.728 17.928 20.216C17.928 19.192 18.408 18.36 19.368 17.72C20.072 17.336 20.712 17.144 21.288 17.144C22.248 17.144 22.92 17.432 23.304 18.008C23.56 18.328 23.688 18.744 23.688 19.256C23.688 20.28 23.176 21.112 22.152 21.752C21.576 22.136 20.936 22.328 20.232 22.328ZM3.528 59.288C2.888 59.288 2.344 59.16 1.896 58.904C1.512 58.648 1.32 58.168 1.32 57.464C1.32 56.568 1.544 55.512 1.992 54.296C2.504 53.08 3.048 51.864 3.624 50.648C4.264 49.432 4.744 48.44 5.064 47.672C5.512 46.776 6.056 45.624 6.696 44.216C7.4 42.744 8.04 41.368 8.616 40.088C9.256 38.744 9.704 37.816 9.96 37.304C9.064 38.264 7.976 39.48 6.696 40.952C5.48 42.36 4.328 43.736 3.24 45.08C2.152 46.424 1.32 47.48 0.744 48.248C0.552 48.504 0.392 48.632 0.264 48.632C0.136 48.632 0.0720001 48.472 0.0720001 48.152C0.0720001 47.64 0.232 47.16 0.552 46.712C1.768 45.176 3.112 43.448 4.584 41.528C6.12 39.608 7.496 37.848 8.712 36.248C9.928 34.584 10.696 33.496 11.016 32.984C11.72 32.856 12.744 32.664 14.088 32.408C15.496 32.152 16.456 31.8 16.968 31.352C17.16 31.16 17.352 31.064 17.544 31.064C17.672 31.064 17.736 31.192 17.736 31.448C17.8 31.64 17.736 31.864 17.544 32.12C17.16 32.568 16.488 33.656 15.528 35.384C14.568 37.112 13.544 39.032 12.456 41.144C11.432 43.192 10.472 45.048 9.576 46.712C8.68 48.44 7.912 50.104 7.272 51.704C6.632 53.304 6.312 54.456 6.312 55.16C6.312 56.056 6.76 56.504 7.656 56.504C8.488 56.504 9.544 55.992 10.824 54.968C12.168 53.944 13.512 52.728 14.856 51.32C16.2 49.848 17.384 48.504 18.408 47.288C18.728 46.904 19.112 46.456 19.56 45.944C20.072 45.368 20.392 45.016 20.52 44.888C20.648 45.016 20.712 45.24 20.712 45.56C20.648 46.008 20.488 46.456 20.232 46.904C19.976 47.288 19.72 47.64 19.464 47.96C18.12 49.624 16.648 51.352 15.048 53.144C13.448 54.872 11.688 56.344 9.768 57.56C7.848 58.712 5.768 59.288 3.528 59.288ZM36.5888 45.176C35.8208 45.112 34.9888 45.048 34.0928 44.984C33.2608 44.856 32.2048 44.792 30.9248 44.792C29.4528 44.792 28.0768 44.824 26.7968 44.888C25.5808 44.888 24.2368 44.952 22.7648 45.08C22.6368 45.08 22.7008 44.856 22.9568 44.408C23.2128 43.96 23.5328 43.512 23.9168 43.064C24.3648 42.616 24.6848 42.424 24.8768 42.488C25.5808 42.616 26.4768 42.712 27.5648 42.776C28.7168 42.776 29.9008 42.808 31.1168 42.872C32.7808 42.872 34.2528 42.84 35.5328 42.776C36.8128 42.712 37.8688 42.648 38.7008 42.584C38.8288 42.584 38.7648 42.808 38.5088 43.256C38.2528 43.704 37.9328 44.152 37.5488 44.6C37.1648 44.984 36.8448 45.176 36.5888 45.176ZM197.924 59.768C195.3 59.768 193.476 59.256 192.452 58.232C191.428 57.208 190.916 55.96 190.916 54.488C190.916 52.632 191.396 50.648 192.355 48.536C193.38 46.424 194.34 44.632 195.236 43.16C196.26 41.624 197.636 40.024 199.364 38.36C201.092 36.696 202.98 35.288 205.028 34.136C207.076 32.984 209.06 32.408 210.98 32.408C212.644 32.408 213.796 32.824 214.436 33.656C215.076 34.424 215.396 35.352 215.396 36.44C215.396 38.424 214.788 40.056 213.572 41.336C212.42 42.616 210.98 43.672 209.252 44.504C207.524 45.272 205.86 45.912 204.26 46.424C203.3 46.68 202.18 46.936 200.9 47.192C199.62 47.448 198.404 47.576 197.252 47.576C196.804 48.728 196.452 49.848 196.196 50.936C195.94 52.024 195.812 53.016 195.812 53.912C195.812 55 196.068 55.896 196.58 56.6C197.156 57.304 198.084 57.656 199.364 57.656C199.876 57.656 200.484 57.592 201.188 57.464C201.892 57.336 202.66 57.144 203.492 56.888C205.412 56.248 207.3 55.224 209.156 53.816C211.012 52.408 212.708 50.904 214.244 49.304C215.844 47.64 217.06 46.264 217.892 45.176C218.084 45.368 218.18 45.592 218.18 45.848C218.18 46.168 217.956 46.68 217.508 47.384C216.228 49.176 214.564 51.032 212.516 52.952C210.468 54.872 208.196 56.504 205.7 57.848C203.204 59.128 200.612 59.768 197.924 59.768ZM198.02 45.656C198.852 45.72 199.78 45.72 200.804 45.656C201.892 45.528 202.948 45.304 203.972 44.984C206.596 44.216 208.484 43 209.636 41.336C210.852 39.608 211.46 38.072 211.46 36.728C211.46 35.96 211.3 35.32 210.98 34.808C210.66 34.296 210.148 34.04 209.444 34.04C207.588 34.04 205.924 34.744 204.452 36.152C202.98 37.496 201.7 39.064 200.612 40.856C199.524 42.648 198.66 44.248 198.02 45.656ZM216.934 60.344C216.678 60.344 216.678 60.088 216.934 59.576C217.254 59 217.542 58.36 217.798 57.656C218.118 56.952 218.438 56.184 218.758 55.352C219.398 53.816 220.102 52.088 220.87 50.168C221.638 48.248 222.374 46.392 223.078 44.6C223.782 42.744 224.39 41.176 224.902 39.896C225.478 38.552 225.862 37.688 226.054 37.304C225.158 38.264 224.07 39.48 222.79 40.952C221.574 42.36 220.422 43.736 219.334 45.08C218.246 46.424 217.414 47.48 216.838 48.248C216.646 48.504 216.486 48.632 216.358 48.632C216.23 48.632 216.166 48.472 216.166 48.152C216.166 47.64 216.326 47.16 216.646 46.712C217.862 45.176 219.206 43.448 220.678 41.528C222.214 39.608 223.59 37.848 224.806 36.248C226.022 34.584 226.79 33.496 227.11 32.984C227.814 32.856 228.838 32.664 230.182 32.408C231.59 32.152 232.55 31.8 233.062 31.352C233.254 31.16 233.446 31.064 233.638 31.064C233.766 31.064 233.83 31.192 233.83 31.448C233.894 31.64 233.83 31.864 233.638 32.12C233.254 32.504 232.678 33.336 231.91 34.616C231.206 35.896 230.406 37.368 229.51 39.032C228.614 40.696 227.75 42.296 226.918 43.832C227.558 42.872 228.39 41.752 229.414 40.472C230.502 39.128 231.686 37.848 232.966 36.632C234.246 35.352 235.526 34.296 236.806 33.464C238.15 32.632 239.398 32.216 240.55 32.216C241.382 32.216 242.086 32.408 242.662 32.792C243.238 33.112 243.686 33.72 244.006 34.616C244.198 35.064 244.294 35.576 244.294 36.152C244.294 37.24 244.006 38.296 243.43 39.32C242.918 40.28 242.534 41.016 242.278 41.528C242.214 41.72 241.99 41.912 241.606 42.104C241.222 42.232 241.062 42.168 241.126 41.912C241.19 41.592 241.222 41.272 241.222 40.952C241.286 40.632 241.318 40.28 241.318 39.896C241.318 38.808 241.094 37.816 240.646 36.92C240.262 36.024 239.526 35.576 238.438 35.576C237.414 35.576 236.166 36.216 234.694 37.496C233.222 38.776 231.75 40.248 230.278 41.912C228.422 44.088 226.95 46.168 225.862 48.152C224.774 50.072 223.878 51.96 223.174 53.816C222.79 54.84 222.406 55.864 222.022 56.888C221.638 57.848 221.35 58.616 221.158 59.192C220.326 59.256 219.494 59.448 218.662 59.768C217.83 60.152 217.254 60.344 216.934 60.344Z" fill="#555555"/>
<path d="M53.583 62.744C51.599 62.744 49.711 62.168 47.919 61.016C46.127 59.928 44.783 58.232 43.887 55.928C43.567 55.096 43.343 54.2 43.215 53.24C43.087 52.28 43.023 51.384 43.023 50.552V49.688C43.023 49.176 43.055 48.664 43.119 48.152C43.247 47.64 43.535 47.384 43.983 47.384C44.111 47.384 44.175 47.448 44.175 47.576C44.175 47.96 44.143 48.376 44.079 48.824C44.079 49.208 44.079 49.592 44.079 49.976C44.079 52.984 44.815 55.256 46.287 56.792C47.823 58.328 49.711 59.096 51.951 59.096C54.191 59.096 56.367 58.456 58.479 57.176C60.591 55.896 62.543 54.264 64.335 52.28C66.127 50.296 67.823 47.832 69.423 44.888C71.023 41.944 72.527 38.84 73.935 35.576C75.343 32.248 76.655 28.984 77.871 25.784C79.151 22.584 80.335 19.736 81.423 17.24C82.063 15.768 83.247 14.52 84.975 13.496C86.767 12.472 88.463 11.736 90.063 11.288C89.615 11.224 89.167 11.192 88.719 11.192C88.335 11.128 87.951 11.064 87.567 11L74.031 9.656C73.007 9.528 71.663 9.432 69.999 9.368C68.335 9.304 66.575 9.272 64.719 9.272C62.223 9.272 59.663 9.432 57.039 9.752C54.415 10.008 52.047 10.488 49.935 11.192C47.823 11.896 46.287 12.952 45.327 14.36C44.815 15.128 44.559 16.024 44.559 17.048C44.559 18.072 44.847 19.032 45.423 19.928C45.999 20.824 46.735 21.528 47.631 22.04C47.759 22.168 47.823 22.264 47.823 22.328C47.823 22.52 47.663 22.68 47.343 22.808C47.087 22.936 46.799 22.936 46.479 22.808C45.903 22.488 45.231 21.944 44.463 21.176C43.695 20.408 42.991 19.608 42.351 18.776C41.775 17.88 41.359 17.144 41.103 16.568C40.719 15.48 40.527 14.52 40.527 13.688C40.527 12.152 41.039 10.904 42.063 9.944C43.151 8.92 44.527 8.152 46.191 7.64C47.919 7.064 49.743 6.68 51.663 6.488C53.647 6.232 55.535 6.104 57.327 6.104C58.031 6.104 58.703 6.104 59.343 6.104C59.983 6.104 60.591 6.136 61.167 6.2C63.215 6.328 65.359 6.456 67.599 6.584C69.839 6.712 72.111 6.872 74.415 7.064L89.679 8.312C90.703 8.376 92.239 8.504 94.287 8.696C96.399 8.824 98.543 8.888 100.719 8.888C103.087 8.888 105.263 8.76 107.247 8.504C109.231 8.184 110.543 7.64 111.183 6.872C111.311 6.616 111.503 6.552 111.759 6.68C112.015 6.808 112.079 6.968 111.951 7.16C111.759 7.928 111.503 8.504 111.183 8.888C110.863 9.528 110.415 10.232 109.839 11C109.327 11.768 108.527 12.28 107.439 12.536C107.183 12.6 106.831 12.664 106.383 12.728C105.935 12.728 105.455 12.728 104.943 12.728C103.471 12.728 101.679 12.632 99.567 12.44C97.519 12.184 95.503 11.928 93.519 11.672C91.599 11.992 89.935 12.888 88.527 14.36C87.119 15.832 85.903 17.528 84.879 19.448C83.855 21.304 82.959 23.064 82.191 24.728C80.783 27.608 79.599 30.264 78.639 32.696C77.743 35.064 76.623 37.688 75.279 40.568C73.935 43.512 72.527 46.424 71.055 49.304C69.583 52.12 67.791 54.68 65.679 56.984C64.079 58.712 62.223 60.088 60.111 61.112C57.999 62.2 55.823 62.744 53.583 62.744ZM84.6525 60.344C84.3965 60.344 84.3965 60.088 84.6525 59.576C84.9725 59 85.2605 58.36 85.5165 57.656C85.8365 56.952 86.1565 56.184 86.4765 55.352C87.1165 53.816 87.8205 52.088 88.5885 50.168C89.3565 48.248 90.0925 46.392 90.7965 44.6C91.5005 42.744 92.1085 41.176 92.6205 39.896C93.1965 38.552 93.5805 37.688 93.7725 37.304C92.8765 38.264 91.7885 39.48 90.5085 40.952C89.2925 42.36 88.1405 43.736 87.0525 45.08C85.9645 46.424 85.1325 47.48 84.5565 48.248C84.3645 48.504 84.2045 48.632 84.0765 48.632C83.9485 48.632 83.8845 48.472 83.8845 48.152C83.8845 47.64 84.0445 47.16 84.3645 46.712C85.5805 45.176 86.9245 43.448 88.3965 41.528C89.9325 39.608 91.3085 37.848 92.5245 36.248C93.7405 34.584 94.5085 33.496 94.8285 32.984C95.5325 32.856 96.5565 32.664 97.9005 32.408C99.3085 32.152 100.269 31.8 100.781 31.352C100.973 31.16 101.165 31.064 101.357 31.064C101.485 31.064 101.549 31.192 101.549 31.448C101.613 31.64 101.549 31.864 101.357 32.12C100.973 32.504 100.397 33.336 99.6285 34.616C98.9245 35.896 98.1245 37.368 97.2285 39.032C96.3325 40.696 95.4685 42.296 94.6365 43.832C95.2765 42.872 96.1085 41.752 97.1325 40.472C98.2205 39.128 99.4045 37.848 100.685 36.632C101.965 35.352 103.245 34.296 104.525 33.464C105.869 32.632 107.117 32.216 108.269 32.216C109.101 32.216 109.805 32.408 110.381 32.792C110.957 33.112 111.405 33.72 111.725 34.616C111.917 35.064 112.013 35.576 112.013 36.152C112.013 37.24 111.725 38.296 111.149 39.32C110.637 40.28 110.253 41.016 109.997 41.528C109.933 41.72 109.709 41.912 109.325 42.104C108.941 42.232 108.781 42.168 108.845 41.912C108.909 41.592 108.941 41.272 108.941 40.952C109.005 40.632 109.036 40.28 109.036 39.896C109.036 38.808 108.812 37.816 108.365 36.92C107.981 36.024 107.245 35.576 106.156 35.576C105.133 35.576 103.885 36.216 102.413 37.496C100.941 38.776 99.4685 40.248 97.9965 41.912C96.1405 44.088 94.6685 46.168 93.5805 48.152C92.4925 50.072 91.5965 51.96 90.8925 53.816C90.5085 54.84 90.1245 55.864 89.7405 56.888C89.3565 57.848 89.0685 58.616 88.8765 59.192C88.0445 59.256 87.2125 59.448 86.3805 59.768C85.5485 60.152 84.9725 60.344 84.6525 60.344ZM123.289 59.288C122.649 59.288 122.105 59.16 121.657 58.904C121.209 58.648 120.985 58.168 120.985 57.464C120.985 56.568 121.209 55.544 121.657 54.392C122.105 53.24 122.617 52.12 123.193 51.032C123.769 49.88 124.281 48.952 124.729 48.248C122.489 50.616 120.153 52.856 117.721 54.968C116.505 55.992 115.161 56.952 113.689 57.848C112.217 58.744 110.649 59.192 108.985 59.192C108.345 59.192 107.897 59 107.641 58.616C107.385 58.168 107.257 57.656 107.257 57.08C107.257 56.76 107.289 56.536 107.353 56.408C107.673 53.912 108.473 51.32 109.753 48.632C111.033 45.944 112.601 43.416 114.457 41.048C116.313 38.68 118.201 36.76 120.121 35.288C122.297 33.624 124.697 32.792 127.321 32.792H138.361C138.681 32.792 138.841 32.92 138.841 33.176C138.841 33.688 138.553 33.944 137.977 33.944C137.337 33.944 136.697 34.36 136.057 35.192C135.417 35.96 134.937 36.6 134.617 37.112C134.169 37.816 133.465 39 132.505 40.664C131.545 42.328 130.553 44.152 129.529 46.136C128.569 48.056 127.737 49.848 127.033 51.512C126.329 53.176 125.977 54.392 125.977 55.16C125.977 56.056 126.425 56.504 127.321 56.504C128.281 56.504 129.369 56.056 130.585 55.16C131.801 54.264 133.017 53.176 134.233 51.896C135.513 50.552 136.665 49.24 137.689 47.96C138.777 46.616 139.641 45.56 140.281 44.792C140.665 45.176 140.633 45.72 140.185 46.424C139.801 47.064 139.449 47.576 139.129 47.96C137.849 49.624 136.377 51.352 134.713 53.144C133.049 54.872 131.225 56.344 129.241 57.56C127.321 58.712 125.337 59.288 123.289 59.288ZM112.921 55.928C113.689 55.928 114.745 55.384 116.089 54.296C117.497 53.144 119.001 51.736 120.601 50.072C122.201 48.344 123.705 46.552 125.113 44.696C126.521 42.776 127.673 41.048 128.569 39.512C129.529 37.912 130.009 36.696 130.009 35.864C130.009 35.16 129.785 34.68 129.337 34.424C128.953 34.168 128.441 34.04 127.801 34.04C126.777 34.04 125.657 34.424 124.441 35.192C123.289 35.896 122.361 36.6 121.657 37.304C120.889 38.008 119.961 39.128 118.873 40.664C117.849 42.136 116.825 43.768 115.801 45.56C114.777 47.352 113.913 49.08 113.209 50.744C112.505 52.408 112.153 53.752 112.153 54.776C112.153 55.544 112.409 55.928 112.921 55.928ZM142.484 59.768C140.116 59.768 138.452 59.32 137.492 58.424C136.532 57.528 136.052 56.376 136.052 54.968C136.052 53.112 136.66 51.064 137.876 48.824C139.092 46.52 140.244 44.6 141.332 43.064C142.42 41.592 143.636 40.216 144.98 38.936C146.388 37.592 147.892 36.44 149.492 35.48C150.516 34.84 151.892 34.168 153.62 33.464C155.412 32.696 156.916 32.312 158.132 32.312C159.604 32.312 160.628 32.664 161.204 33.368C161.78 34.008 162.068 34.808 162.068 35.768C162.068 36.536 161.94 37.336 161.684 38.168C161.428 38.936 161.14 39.672 160.82 40.376C160.628 40.76 160.34 41.048 159.956 41.24C159.572 41.368 159.38 41.304 159.38 41.048C159.38 40.728 159.412 40.44 159.476 40.184C159.54 39.928 159.572 39.64 159.572 39.32C159.572 38.104 159.284 36.92 158.708 35.768C158.196 34.552 157.396 33.944 156.308 33.944C155.156 33.944 153.908 34.36 152.564 35.192C151.22 35.96 150.292 36.632 149.78 37.208C148.116 38.936 146.484 41.08 144.884 43.64C143.348 46.2 142.228 48.632 141.523 50.936C141.076 52.28 140.852 53.432 140.852 54.392C140.852 55.48 141.14 56.248 141.716 56.696C142.292 57.144 142.996 57.368 143.828 57.368C144.468 57.368 145.14 57.272 145.844 57.08C146.612 56.888 147.412 56.664 148.244 56.408C150.164 55.768 152.084 54.776 154.004 53.432C155.988 52.024 157.78 50.552 159.38 49.016C160.98 47.416 162.196 46.04 163.028 44.888C163.156 45.016 163.22 45.208 163.22 45.464C163.22 45.784 163.092 46.168 162.836 46.616C162.58 47 162.388 47.32 162.26 47.576C160.916 49.368 159.156 51.224 156.98 53.144C154.804 55 152.436 56.568 149.876 57.848C147.38 59.128 144.916 59.768 142.484 59.768ZM178.511 59.48C176.911 59.48 175.695 58.936 174.863 57.848C174.351 57.08 173.839 55.928 173.327 54.392C172.815 52.856 172.367 51.256 171.983 49.592C171.599 47.928 171.279 46.584 171.023 45.56C169.231 47.864 167.631 50.168 166.223 52.472C164.879 54.776 163.983 56.568 163.535 57.848C163.407 58.232 162.959 58.552 162.191 58.808C161.487 59.064 160.783 59.192 160.079 59.192C159.055 59.192 158.671 58.872 158.927 58.232C160.911 53.816 162.799 49.56 164.591 45.464C166.383 41.368 168.271 37.24 170.255 33.08C172.303 28.92 174.607 24.6 177.167 20.12C178.959 16.856 181.103 13.72 183.599 10.712C186.159 7.64 188.879 5.144 191.759 3.224C194.639 1.24 197.551 0.247995 200.495 0.247995C201.455 0.247995 202.351 0.503996 203.183 1.016C204.015 1.528 204.431 2.328 204.431 3.41599V6.2C204.431 6.456 204.239 6.584 203.855 6.584C203.663 6.584 203.567 6.52 203.567 6.392C203.567 5.368 203.119 4.696 202.223 4.376C201.327 3.992 200.463 3.8 199.631 3.8C197.391 3.8 195.119 4.248 192.815 5.144C190.255 6.168 188.111 7.704 186.383 9.752C184.655 11.8 183.055 13.976 181.583 16.28C179.663 19.224 177.775 22.68 175.919 26.648C174.063 30.552 172.335 34.488 170.734 38.456C169.199 42.424 167.823 46.008 166.607 49.208C167.311 48.312 168.015 47.416 168.719 46.52C169.423 45.624 170.095 44.792 170.734 44.024C170.734 43.896 170.703 43.768 170.639 43.64C170.639 43.512 170.639 43.384 170.639 43.256C170.639 42.808 170.735 42.424 170.927 42.104C171.119 41.784 171.375 41.4 171.695 40.952C172.143 40.312 172.559 39.832 172.943 39.512C173.327 39.128 173.743 38.648 174.191 38.072L174.479 39.704C177.295 36.824 179.759 34.744 181.871 33.464C183.343 32.568 184.783 32.12 186.191 32.12C187.599 32.12 188.303 32.664 188.303 33.752C188.303 34.648 187.855 35.768 186.959 37.112C186.639 37.56 186.447 37.88 186.383 38.072C186.319 38.264 186.191 38.456 185.999 38.648C185.935 38.712 185.807 38.712 185.615 38.648C185.423 38.584 185.327 38.488 185.327 38.36C185.327 37.592 185.071 37.112 184.559 36.92C184.047 36.664 183.471 36.536 182.831 36.536C181.615 36.536 180.303 36.984 178.895 37.88C177.551 38.712 176.175 39.864 174.767 41.336C175.087 42.936 175.439 44.696 175.823 46.616C176.271 48.472 176.751 50.2 177.263 51.8C177.775 53.4 178.255 54.584 178.703 55.352C179.023 55.864 179.471 56.216 180.047 56.408C180.623 56.536 181.103 56.6 181.487 56.6C182.383 56.6 183.407 56.152 184.559 55.256C185.775 54.296 186.991 53.176 188.207 51.896C189.487 50.552 190.639 49.24 191.663 47.96C192.751 46.68 193.583 45.656 194.159 44.888C194.415 45.208 194.479 45.528 194.351 45.848C194.287 46.232 194.095 46.648 193.775 47.096C193.519 47.48 193.263 47.832 193.007 48.152C191.727 49.752 190.351 51.384 188.879 53.048C187.407 54.648 185.839 56.088 184.175 57.368C183.471 57.944 182.607 58.456 181.583 58.904C180.559 59.288 179.535 59.48 178.511 59.48Z" fill="#219D80"/>
</svg>
