<?xml version="1.0" encoding="UTF-8"?>
<!DOCTYPE svg PUBLIC "-//W3C//DTD SVG 1.1//EN" "http://www.w3.org/Graphics/SVG/1.1/DTD/svg11.dtd">
<!-- Creator: CorelDRAW -->
<svg xmlns="http://www.w3.org/2000/svg" xml:space="preserve" width="2048px" height="2048px" style="shape-rendering:geometricPrecision; text-rendering:geometricPrecision; image-rendering:optimizeQuality; fill-rule:evenodd; clip-rule:evenodd"
viewBox="0 0 2048 2048"
 xmlns:xlink="http://www.w3.org/1999/xlink">
 <defs>
  <style type="text/css">
   <![CDATA[
    .fil2 {fill:none}
    .fil6 {fill:#C2C4C4}
    .fil4 {fill:#FEFEFE}
    .fil5 {fill:#212121}
    .fil9 {fill:#424242}
    .fil7 {fill:#512DA8}
    .fil3 {fill:#66BB6A}
    .fil1 {fill:#6D4C41}
    .fil0 {fill:#A1887F}
    .fil8 {fill:#D81B60}
   ]]>
  </style>
   <clipPath id="id0">
    <path d="M1024 0c565.541,0 1024,458.459 1024,1024 0,565.541 -458.459,1024 -1024,1024 -565.541,0 -1024,-458.459 -1024,-1024 0,-565.541 458.459,-1024 1024,-1024z"/>
   </clipPath>
 </defs>
 <g id="Layer_x0020_1">
  <metadata id="CorelCorpID_0Corel-Layer"/>
  <path class="fil0" d="M1024 0c565.541,0 1024,458.459 1024,1024 0,565.541 -458.459,1024 -1024,1024 -565.541,0 -1024,-458.459 -1024,-1024 0,-565.541 458.459,-1024 1024,-1024z"/>
  <g style="clip-path:url(#id0)">
   <g id="_308711320">
    <g>
     <polygon id="_3039292401" class="fil1" points="1076.44,487.641 2212.32,1623.52 2214.11,1625.63 2215.82,1627.81 2217.44,1630.05 2218.98,1632.36 2220.43,1634.74 2221.79,1637.17 2223.06,1639.67 2224.23,1642.21 2225.3,1644.82 2226.27,1647.47 2227.13,1650.17 1091.25,514.287 1090.38,511.585 1089.41,508.934 1088.34,506.332 1087.18,503.783 1085.91,501.291 1084.55,498.856 1083.1,496.481 1081.56,494.171 1079.94,491.925 1078.23,489.748 "/>
     <polygon id="_303929384" class="fil1" points="1418.93,1584 2554.81,2719.88 1764.95,2719.88 629.067,1584 "/>
     <polygon id="_303931184" class="fil1" points="1207.5,514.287 2343.39,1650.17 2343.39,1688.07 1207.5,552.185 "/>
     <polygon id="_303931328" class="fil1" points="1418.93,552.185 2554.81,1688.07 2554.81,2719.88 1418.93,1584 "/>
    </g>
    <path id="_308711464" class="fil1" d="M1418.93 552.185l0 1031.82 -789.865 0 0 -1031.82 211.429 0 0 -37.8981 116.254 0c8.68229,-29.0575 35.367,-50.2867 67.2449,-50.2867 31.8874,0 58.5745,21.2292 67.2544,50.2867l116.255 0 0 37.8981 211.428 0z"/>
   </g>
  </g>
  <path class="fil2" d="M1024 0c565.541,0 1024,458.459 1024,1024 0,565.541 -458.459,1024 -1024,1024 -565.541,0 -1024,-458.459 -1024,-1024 0,-565.541 458.459,-1024 1024,-1024z"/>
  <polygon class="fil3" points="1418.93,1584 629.066,1584 629.066,552.185 1418.93,552.185 "/>
  <polygon class="fil4" points="1382.38,1538.9 665.621,1538.9 665.621,597.282 1382.38,597.282 "/>
  <path class="fil5" d="M1093.87 527.517c-3.59055,-35.6126 -33.313,-63.5174 -69.8705,-63.5174 -36.5492,0 -66.2717,27.9047 -69.8623,63.5209l139.733 -0.00354331z"/>
  <polygon class="fil6" points="1315.63,1285.99 960.738,1285.99 960.738,1250.98 1315.63,1250.98 "/>
  <polygon class="fil6" points="1315.63,1339.36 960.738,1339.36 960.738,1304.34 1315.63,1304.34 "/>
  <polygon class="fil6" points="1315.63,1392.72 960.738,1392.72 960.738,1357.7 1315.63,1357.7 "/>
  <polygon class="fil6" points="1315.63,1446.09 960.738,1446.09 960.738,1411.07 1315.63,1411.07 "/>
  <path class="fil7" d="M903.243 1420.83l-144.588 0 0 -144.588 144.588 0 0 144.588zm-170.871 -170.876l0 197.162 197.154 0 0 -197.162 -197.154 0z"/>
  <path class="fil8" d="M769.616 1170.26c-6.36615,11.0799 -2.54646,25.2236 8.53347,31.591 11.0787,6.36733 25.2236,2.54646 31.591,-8.53347l62.6552 -108.521 65.2371 65.2359 -0.00236221 0.00236221c9.07442,9.07442 23.791,9.07442 32.8654,0 2.02205,-2.02205 3.59174,-4.3252 4.71378,-6.78189l87.2386 -151.103 96.795 167.655 20.061 -11.5299 -20.126 11.6209c6.41693,11.1142 20.6327,14.9221 31.7469,8.50512 1.97244,-1.13858 3.71339,-2.52402 5.20985,-4.0937l78.5221 -78.5221c9.07442,-9.07442 9.07442,-23.7874 0,-32.8618 -9.07324,-9.07442 -23.7874,-9.07442 -32.8618,0l-57.58 57.58 -100.638 -174.312c-1.93819,-4.23898 -5.16496,-7.93583 -9.50906,-10.4445 -11.1154,-6.41693 -25.3299,-2.60906 -31.7457,8.50631l20.126 11.6197 -20.0622 -11.5287 -93.2327 161.484 -64.8378 -64.8367c-1.49646,-1.56969 -3.2374,-2.95512 -5.20985,-4.0937 -11.1154,-6.41693 -25.3299,-2.60906 -31.7469,8.50631l20.1272 11.6197 -20.0622 -11.5299 -77.8075 134.766z"/>
  <polygon class="fil6" points="1312.99,724.084 735.009,724.084 735.009,689.075 1312.99,689.075 "/>
  <polygon class="fil6" points="1312.99,806.138 735.009,806.138 735.009,771.128 1312.99,771.128 "/>
  <polygon class="fil6" points="1312.99,876.377 735.009,876.377 735.009,841.367 1312.99,841.367 "/>
  <polygon class="fil9" points="1207.5,608.683 840.497,608.683 840.497,514.285 1207.5,514.285 "/>
 </g>
</svg>
