<svg width="209" height="106" viewBox="0 0 209 106" fill="none" xmlns="http://www.w3.org/2000/svg">
<rect x="0.890625" width="207.117" height="106" rx="10" fill="#FFA559" fill-opacity="0.76"/>
<path d="M101.144 63.4H105.032V63.922C104.528 64.258 104.036 64.498 103.556 64.642V76.216H102.53L95.9959 66.298L95.2939 64.894H95.2399L95.4019 66.298V74.848C95.8939 74.98 96.3559 75.19 96.7879 75.478V76H92.8999V75.478C93.1159 75.346 93.3439 75.232 93.5839 75.136C93.8359 75.028 94.0999 74.932 94.3759 74.848V64.534C94.1359 64.438 93.8959 64.336 93.6559 64.228C93.4279 64.12 93.2119 64.012 93.0079 63.904V63.4H96.0499L101.72 71.95L102.548 73.498H102.62L102.53 71.95V64.642C102.278 64.534 102.032 64.42 101.792 64.3C101.564 64.18 101.348 64.054 101.144 63.922V63.4ZM113.59 74.74C113.494 74.944 113.344 75.136 113.14 75.316C112.936 75.496 112.702 75.652 112.438 75.784C112.174 75.916 111.886 76.018 111.574 76.09C111.262 76.174 110.944 76.216 110.62 76.216C109.912 76.216 109.288 76.108 108.748 75.892C108.208 75.664 107.758 75.346 107.398 74.938C107.038 74.518 106.762 74.02 106.57 73.444C106.39 72.868 106.3 72.22 106.3 71.5C106.3 69.964 106.654 68.794 107.362 67.99C108.07 67.186 109.072 66.784 110.368 66.784C110.788 66.784 111.202 66.844 111.61 66.964C112.018 67.072 112.378 67.258 112.69 67.522C113.014 67.786 113.272 68.14 113.464 68.584C113.668 69.016 113.77 69.556 113.77 70.204C113.77 70.408 113.758 70.618 113.734 70.834C113.722 71.038 113.692 71.26 113.644 71.5H108.028C108.028 72.004 108.088 72.478 108.208 72.922C108.34 73.354 108.532 73.732 108.784 74.056C109.036 74.38 109.354 74.638 109.738 74.83C110.122 75.01 110.572 75.1 111.088 75.1C111.508 75.1 111.934 75.04 112.366 74.92C112.798 74.8 113.122 74.644 113.338 74.452L113.59 74.74ZM110.296 67.576C109.612 67.576 109.09 67.81 108.73 68.278C108.37 68.734 108.154 69.544 108.082 70.708H112.042C112.054 70.6 112.06 70.498 112.06 70.402C112.072 70.294 112.078 70.192 112.078 70.096C112.078 69.328 111.934 68.716 111.646 68.26C111.358 67.804 110.908 67.576 110.296 67.576ZM118.197 76.216L115.371 67.9C115.203 67.84 115.035 67.78 114.867 67.72C114.711 67.648 114.561 67.564 114.417 67.468V67H118.161V67.45C117.993 67.546 117.825 67.636 117.657 67.72C117.489 67.792 117.315 67.852 117.135 67.9L118.701 73.156L118.935 74.452H118.971L119.241 73.12L121.185 67.18L121.725 67L123.795 73.138L124.119 74.452H124.155L124.425 73.138L125.811 67.9C125.679 67.876 125.523 67.828 125.343 67.756C125.175 67.684 125.001 67.588 124.821 67.468V67H127.881V67.468C127.629 67.636 127.287 67.78 126.855 67.9L124.299 76L123.345 76.216L121.563 71.122L121.221 69.628H121.167L120.753 71.122L119.133 76L118.197 76.216ZM135.795 75.046C136.071 75.106 136.335 75.172 136.587 75.244C136.839 75.304 137.085 75.382 137.325 75.478V76H132.591V75.478C132.855 75.358 133.107 75.268 133.347 75.208C133.587 75.148 133.827 75.094 134.067 75.046V64.372C133.755 64.312 133.479 64.246 133.239 64.174C132.999 64.09 132.783 64.006 132.591 63.922V63.4H134.175C134.655 63.4 135.177 63.376 135.741 63.328C136.317 63.28 136.875 63.256 137.415 63.256C138.003 63.256 138.549 63.322 139.053 63.454C139.569 63.586 140.013 63.796 140.385 64.084C140.757 64.372 141.045 64.738 141.249 65.182C141.465 65.626 141.573 66.16 141.573 66.784C141.573 67.66 141.339 68.386 140.871 68.962C140.415 69.538 139.791 69.952 138.999 70.204C139.515 71.02 140.055 71.83 140.619 72.634C141.183 73.438 141.771 74.236 142.383 75.028L143.355 75.55V76H141.177L140.493 75.496C140.157 75.076 139.851 74.668 139.575 74.272C139.299 73.864 139.041 73.456 138.801 73.048C138.561 72.628 138.333 72.208 138.117 71.788C137.913 71.356 137.703 70.9 137.487 70.42H135.795V75.046ZM137.019 64.192C136.731 64.192 136.491 64.198 136.299 64.21C136.119 64.222 135.951 64.246 135.795 64.282V69.664H137.091C137.919 69.664 138.573 69.4 139.053 68.872C139.545 68.344 139.791 67.648 139.791 66.784C139.791 65.896 139.533 65.242 139.017 64.822C138.501 64.402 137.835 64.192 137.019 64.192ZM151.224 74.74C151.128 74.944 150.978 75.136 150.774 75.316C150.57 75.496 150.336 75.652 150.072 75.784C149.808 75.916 149.52 76.018 149.208 76.09C148.896 76.174 148.578 76.216 148.254 76.216C147.546 76.216 146.922 76.108 146.382 75.892C145.842 75.664 145.392 75.346 145.032 74.938C144.672 74.518 144.396 74.02 144.204 73.444C144.024 72.868 143.934 72.22 143.934 71.5C143.934 69.964 144.288 68.794 144.996 67.99C145.704 67.186 146.706 66.784 148.002 66.784C148.422 66.784 148.836 66.844 149.244 66.964C149.652 67.072 150.012 67.258 150.324 67.522C150.648 67.786 150.906 68.14 151.098 68.584C151.302 69.016 151.404 69.556 151.404 70.204C151.404 70.408 151.392 70.618 151.368 70.834C151.356 71.038 151.326 71.26 151.278 71.5H145.662C145.662 72.004 145.722 72.478 145.842 72.922C145.974 73.354 146.166 73.732 146.418 74.056C146.67 74.38 146.988 74.638 147.372 74.83C147.756 75.01 148.206 75.1 148.722 75.1C149.142 75.1 149.568 75.04 150 74.92C150.432 74.8 150.756 74.644 150.972 74.452L151.224 74.74ZM147.93 67.576C147.246 67.576 146.724 67.81 146.364 68.278C146.004 68.734 145.788 69.544 145.716 70.708H149.676C149.688 70.6 149.694 70.498 149.694 70.402C149.706 70.294 149.712 70.192 149.712 70.096C149.712 69.328 149.568 68.716 149.28 68.26C148.992 67.804 148.542 67.576 147.93 67.576ZM158.945 74.398C158.777 74.878 158.483 75.304 158.063 75.676C157.643 76.036 157.109 76.216 156.461 76.216C155.309 76.216 154.439 75.838 153.851 75.082C153.275 74.314 152.987 73.138 152.987 71.554C152.987 69.994 153.371 68.818 154.139 68.026C154.919 67.234 156.035 66.838 157.487 66.838C158.135 66.838 158.753 66.898 159.341 67.018C159.929 67.138 160.361 67.264 160.637 67.396V78.718C160.841 78.754 161.039 78.802 161.231 78.862C161.423 78.934 161.621 79.03 161.825 79.15V79.6H157.829V79.15C158.201 78.958 158.597 78.814 159.017 78.718V74.398H158.945ZM156.893 75.1C157.481 75.1 157.943 74.914 158.279 74.542C158.627 74.17 158.873 73.672 159.017 73.048V67.882C158.801 67.81 158.543 67.75 158.243 67.702C157.955 67.654 157.619 67.63 157.235 67.63C156.431 67.63 155.807 67.942 155.363 68.566C154.931 69.19 154.715 70.174 154.715 71.518C154.715 72.022 154.751 72.49 154.823 72.922C154.895 73.354 155.015 73.732 155.183 74.056C155.363 74.38 155.591 74.638 155.867 74.83C156.143 75.01 156.485 75.1 156.893 75.1ZM163.496 72.436C163.496 71.68 163.514 70.942 163.55 70.222C163.586 69.49 163.604 68.764 163.604 68.044L162.416 67.9V67.432C162.8 67.288 163.19 67.162 163.586 67.054C163.994 66.946 164.39 66.856 164.774 66.784H165.224C165.224 67.684 165.206 68.578 165.17 69.466C165.134 70.354 165.116 71.236 165.116 72.112C165.116 72.58 165.14 73 165.188 73.372C165.248 73.744 165.344 74.056 165.476 74.308C165.62 74.56 165.812 74.758 166.052 74.902C166.292 75.034 166.598 75.1 166.97 75.1C167.51 75.1 167.96 74.908 168.32 74.524C168.692 74.128 168.98 73.618 169.184 72.994V68.044L168.014 67.9V67.432C168.386 67.288 168.77 67.162 169.166 67.054C169.574 66.946 169.97 66.856 170.354 66.784H170.804V74.974L171.992 75.118V75.496C171.644 75.652 171.29 75.79 170.93 75.91C170.582 76.03 170.216 76.12 169.832 76.18H169.382L169.256 74.038H169.184C169.124 74.29 169.016 74.548 168.86 74.812C168.716 75.064 168.524 75.298 168.284 75.514C168.044 75.718 167.768 75.886 167.456 76.018C167.156 76.15 166.826 76.216 166.466 76.216C165.986 76.216 165.56 76.156 165.188 76.036C164.828 75.928 164.522 75.73 164.27 75.442C164.018 75.154 163.826 74.77 163.694 74.29C163.562 73.798 163.496 73.18 163.496 72.436ZM180.474 74.74C180.378 74.944 180.228 75.136 180.024 75.316C179.82 75.496 179.586 75.652 179.322 75.784C179.058 75.916 178.77 76.018 178.458 76.09C178.146 76.174 177.828 76.216 177.504 76.216C176.796 76.216 176.172 76.108 175.632 75.892C175.092 75.664 174.642 75.346 174.282 74.938C173.922 74.518 173.646 74.02 173.454 73.444C173.274 72.868 173.184 72.22 173.184 71.5C173.184 69.964 173.538 68.794 174.246 67.99C174.954 67.186 175.956 66.784 177.252 66.784C177.672 66.784 178.086 66.844 178.494 66.964C178.902 67.072 179.262 67.258 179.574 67.522C179.898 67.786 180.156 68.14 180.348 68.584C180.552 69.016 180.654 69.556 180.654 70.204C180.654 70.408 180.642 70.618 180.618 70.834C180.606 71.038 180.576 71.26 180.528 71.5H174.912C174.912 72.004 174.972 72.478 175.092 72.922C175.224 73.354 175.416 73.732 175.668 74.056C175.92 74.38 176.238 74.638 176.622 74.83C177.006 75.01 177.456 75.1 177.972 75.1C178.392 75.1 178.818 75.04 179.25 74.92C179.682 74.8 180.006 74.644 180.222 74.452L180.474 74.74ZM177.18 67.576C176.496 67.576 175.974 67.81 175.614 68.278C175.254 68.734 175.038 69.544 174.966 70.708H178.926C178.938 70.6 178.944 70.498 178.944 70.402C178.956 70.294 178.962 70.192 178.962 70.096C178.962 69.328 178.818 68.716 178.53 68.26C178.242 67.804 177.792 67.576 177.18 67.576ZM186.809 73.948C186.809 73.612 186.701 73.33 186.485 73.102C186.281 72.862 186.017 72.64 185.693 72.436C185.369 72.232 185.021 72.034 184.649 71.842C184.289 71.65 183.947 71.428 183.623 71.176C183.299 70.912 183.029 70.612 182.813 70.276C182.609 69.94 182.507 69.526 182.507 69.034C182.507 68.71 182.579 68.41 182.723 68.134C182.879 67.858 183.083 67.624 183.335 67.432C183.587 67.228 183.881 67.072 184.217 66.964C184.553 66.844 184.913 66.784 185.297 66.784C185.945 66.784 186.473 66.82 186.881 66.892C187.301 66.964 187.703 67.066 188.087 67.198C188.039 67.582 187.979 67.972 187.907 68.368C187.847 68.752 187.757 69.148 187.637 69.556H187.187L186.503 67.72C186.359 67.66 186.197 67.624 186.017 67.612C185.837 67.588 185.651 67.576 185.459 67.576C185.243 67.576 185.051 67.618 184.883 67.702C184.727 67.774 184.589 67.87 184.469 67.99C184.361 68.11 184.277 68.248 184.217 68.404C184.157 68.56 184.127 68.716 184.127 68.872C184.127 69.196 184.229 69.478 184.433 69.718C184.649 69.946 184.919 70.162 185.243 70.366C185.567 70.558 185.909 70.75 186.269 70.942C186.641 71.134 186.989 71.35 187.313 71.59C187.637 71.83 187.901 72.112 188.105 72.436C188.321 72.748 188.429 73.126 188.429 73.57C188.429 73.978 188.339 74.344 188.159 74.668C187.991 74.992 187.751 75.268 187.439 75.496C187.139 75.724 186.785 75.898 186.377 76.018C185.981 76.15 185.555 76.216 185.099 76.216C184.583 76.216 184.109 76.168 183.677 76.072C183.245 75.988 182.795 75.862 182.327 75.694C182.351 75.262 182.405 74.848 182.489 74.452C182.573 74.044 182.681 73.654 182.813 73.282H183.263L184.055 75.244C184.187 75.34 184.343 75.394 184.523 75.406C184.715 75.418 184.889 75.424 185.045 75.424C185.573 75.424 185.999 75.28 186.323 74.992C186.647 74.704 186.809 74.356 186.809 73.948ZM189.556 67.432C190.012 67.144 190.492 66.94 190.996 66.82V65.29C191.152 65.158 191.332 65.044 191.536 64.948C191.752 64.84 191.962 64.738 192.166 64.642H192.616V67H195.316V67.9H192.616V73.12C192.616 73.84 192.73 74.35 192.958 74.65C193.186 74.95 193.528 75.1 193.984 75.1C194.2 75.1 194.47 75.088 194.794 75.064C195.118 75.028 195.394 74.968 195.622 74.884L195.748 75.154C195.652 75.262 195.514 75.376 195.334 75.496C195.166 75.616 194.968 75.73 194.74 75.838C194.524 75.946 194.284 76.036 194.02 76.108C193.756 76.18 193.486 76.216 193.21 76.216C192.49 76.216 191.938 76.012 191.554 75.604C191.182 75.196 190.996 74.536 190.996 73.624V67.9H189.556V67.432ZM201.276 73.948C201.276 73.612 201.168 73.33 200.952 73.102C200.748 72.862 200.484 72.64 200.16 72.436C199.836 72.232 199.488 72.034 199.116 71.842C198.756 71.65 198.414 71.428 198.09 71.176C197.766 70.912 197.496 70.612 197.28 70.276C197.076 69.94 196.974 69.526 196.974 69.034C196.974 68.71 197.046 68.41 197.19 68.134C197.346 67.858 197.55 67.624 197.802 67.432C198.054 67.228 198.348 67.072 198.684 66.964C199.02 66.844 199.38 66.784 199.764 66.784C200.412 66.784 200.94 66.82 201.348 66.892C201.768 66.964 202.17 67.066 202.554 67.198C202.506 67.582 202.446 67.972 202.374 68.368C202.314 68.752 202.224 69.148 202.104 69.556H201.654L200.97 67.72C200.826 67.66 200.664 67.624 200.484 67.612C200.304 67.588 200.118 67.576 199.926 67.576C199.71 67.576 199.518 67.618 199.35 67.702C199.194 67.774 199.056 67.87 198.936 67.99C198.828 68.11 198.744 68.248 198.684 68.404C198.624 68.56 198.594 68.716 198.594 68.872C198.594 69.196 198.696 69.478 198.9 69.718C199.116 69.946 199.386 70.162 199.71 70.366C200.034 70.558 200.376 70.75 200.736 70.942C201.108 71.134 201.456 71.35 201.78 71.59C202.104 71.83 202.368 72.112 202.572 72.436C202.788 72.748 202.896 73.126 202.896 73.57C202.896 73.978 202.806 74.344 202.626 74.668C202.458 74.992 202.218 75.268 201.906 75.496C201.606 75.724 201.252 75.898 200.844 76.018C200.448 76.15 200.022 76.216 199.566 76.216C199.05 76.216 198.576 76.168 198.144 76.072C197.712 75.988 197.262 75.862 196.794 75.694C196.818 75.262 196.872 74.848 196.956 74.452C197.04 74.044 197.148 73.654 197.28 73.282H197.73L198.522 75.244C198.654 75.34 198.81 75.394 198.99 75.406C199.182 75.418 199.356 75.424 199.512 75.424C200.04 75.424 200.466 75.28 200.79 74.992C201.114 74.704 201.276 74.356 201.276 73.948Z" fill="black"/>
<g filter="url(#filter0_d_133_11242)">
<path d="M42.5401 54.0903C41.9801 54.2564 41.6601 55.004 42.1401 55.5024L46.54 60.1544C47.02 60.6528 47.02 61.4004 46.54 61.8988L44.8601 63.6433C44.3801 64.1417 43.6601 64.1417 43.1801 63.6433L32.3804 52.4289C31.9004 51.9304 31.9004 51.1828 32.3804 50.6844L43.1801 39.47C43.6601 38.9715 44.3801 38.9715 44.8601 39.47L46.54 41.2975C47.02 41.7959 47.02 42.5435 46.54 43.042L42.0601 47.6939C41.5801 48.1923 42.4601 49.1061 42.4601 49.1061C52.6999 49.4383 60.6197 56.4162 63.0996 65.9692C65.7395 62.3142 67.3395 57.8284 67.3395 53.0103C67.2595 40.1345 56.5398 30 43.2601 30C29.9004 30 19.2607 40.2176 19.2607 52.7611C19.2607 56.7485 20.3807 60.4866 22.1406 63.8094C22.4606 64.3078 22.5406 64.9724 22.3806 65.5539L19.2607 74.4424C18.9407 75.2731 19.7407 76.0207 20.5407 75.7715L29.1805 72.3656C29.6605 72.1164 30.3004 72.2825 30.8604 72.6148C34.4603 74.6916 38.7802 75.9376 43.4201 75.9376C49.4199 75.8546 54.8598 73.6947 59.0197 70.2058C58.0597 61.3173 51.0999 54.4225 42.5401 54.0903Z" fill="white" fill-opacity="0.75"/>
</g>
<defs>
<filter id="filter0_d_133_11242" x="15.1885" y="30" width="56.1514" height="53.9377" filterUnits="userSpaceOnUse" color-interpolation-filters="sRGB">
<feFlood flood-opacity="0" result="BackgroundImageFix"/>
<feColorMatrix in="SourceAlpha" type="matrix" values="0 0 0 0 0 0 0 0 0 0 0 0 0 0 0 0 0 0 127 0" result="hardAlpha"/>
<feOffset dy="4"/>
<feGaussianBlur stdDeviation="2"/>
<feComposite in2="hardAlpha" operator="out"/>
<feColorMatrix type="matrix" values="0 0 0 0 0 0 0 0 0 0 0 0 0 0 0 0 0 0 0.25 0"/>
<feBlend mode="normal" in2="BackgroundImageFix" result="effect1_dropShadow_133_11242"/>
<feBlend mode="normal" in="SourceGraphic" in2="effect1_dropShadow_133_11242" result="shape"/>
</filter>
</defs>
</svg>
